<?xml version="1.0" standalone="no"?>
<!DOCTYPE svg PUBLIC "-//W3C//DTD SVG 20010904//EN"
 "http://www.w3.org/TR/2001/REC-SVG-20010904/DTD/svg10.dtd">
<svg version="1.0" xmlns="http://www.w3.org/2000/svg"
 width="248.000000pt" height="307.000000pt" viewBox="0 0 248.000000 307.000000"
 preserveAspectRatio="xMidYMid meet">
<metadata>
Created by potrace 1.16, written by Peter Selinger 2001-2019
</metadata>
<g transform="translate(0.000000,307.000000) scale(0.100000,-0.100000)"
fill="#000000" stroke="none">
<path d="M965 3049 c-301 -40 -547 -182 -651 -372 -15 -29 -50 -79 -78 -112
-64 -78 -122 -200 -142 -300 -15 -75 -15 -242 0 -418 2 -23 2 -34 -1 -25 -7
29 -42 3 -66 -50 -20 -43 -22 -64 -22 -232 0 -179 1 -187 25 -230 21 -37 38
-51 99 -83 41 -21 80 -36 87 -33 16 6 62 -153 69 -244 15 -176 58 -328 138
-484 98 -192 228 -336 365 -403 70 -35 79 -37 220 -44 186 -11 471 -2 537 17
193 53 410 317 508 619 36 109 45 156 56 282 6 59 18 132 29 162 l18 54 108
37 c129 44 153 61 186 126 24 46 25 58 25 209 0 189 -6 224 -46 270 -33 37
-106 66 -118 46 -4 -6 -5 80 -3 192 3 167 1 213 -13 267 -24 94 -68 180 -134
263 -32 39 -70 95 -86 124 -83 155 -278 281 -525 340 -90 21 -135 25 -310 28
-113 2 -236 -1 -275 -6z m644 -621 c44 -110 53 -200 60 -573 6 -316 7 -340 24
-337 9 2 17 -3 17 -12 0 -9 -7 -12 -20 -9 -11 3 -20 0 -20 -6 0 -6 11 -11 25
-11 17 0 25 5 25 18 0 9 11 26 25 36 13 10 22 23 19 28 -3 5 3 12 15 15 12 3
21 9 21 14 0 5 9 9 20 9 11 0 20 5 20 10 0 6 6 10 13 10 6 0 30 16 51 35 22
19 44 35 50 35 6 0 18 17 28 38 14 33 16 34 17 12 1 -21 3 -22 12 -10 8 11 9
5 5 -25 -3 -22 -6 -64 -6 -92 0 -46 -3 -53 -20 -53 -11 0 -35 -9 -55 -20 -20
-11 -42 -20 -50 -20 -8 0 -15 -4 -15 -10 0 -5 -11 -10 -24 -10 -14 0 -28 -5
-32 -11 -3 -6 -24 -9 -45 -7 -27 2 -39 0 -39 -9 0 -7 -3 -12 -7 -12 -5 1 -20
1 -35 0 -27 -1 -28 -3 -28 -56 0 -30 -3 -55 -8 -55 -25 0 -29 51 -30 386 -1
366 -12 538 -39 639 -9 33 -16 75 -16 92 0 18 -2 31 -6 29 -3 -2 -7 7 -7 21
-2 24 -2 24 12 5 8 -11 27 -53 43 -94z m-1095 -783 c16 -14 34 -25 40 -25 6 0
17 -9 24 -20 7 -11 23 -20 37 -20 17 0 25 -6 25 -17 0 -22 43 -43 89 -43 27 0
32 -3 21 -10 -8 -5 -31 -10 -50 -10 -26 0 -31 -3 -20 -10 8 -5 27 -10 43 -10
15 0 27 -4 27 -10 0 -5 -21 -10 -46 -10 -27 0 -43 4 -39 10 4 6 -12 10 -42 10
-35 0 -44 3 -33 10 11 7 3 10 -28 10 -26 0 -41 4 -37 10 3 6 -5 10 -18 10 -29
0 -36 13 -44 92 -7 67 4 74 51 33z m1446 -286 c-25 -84 -49 -126 -61 -108 -4
7 -24 12 -45 11 -21 -1 -43 3 -50 9 -7 6 -18 8 -24 4 -5 -3 -10 -1 -10 5 0 7
-12 9 -34 5 -20 -4 -36 -2 -40 4 -4 6 0 11 9 11 9 0 15 6 12 13 -2 6 -11 11
-20 9 -8 -1 -18 2 -22 8 -4 6 9 10 34 10 23 0 41 5 41 10 0 6 13 10 29 10 17
0 33 5 36 10 3 6 15 10 26 10 10 0 27 4 37 9 66 33 97 48 101 45 2 -2 -7 -35
-19 -75z m-1435 31 c-4 -6 8 -10 29 -10 20 0 36 -4 36 -10 0 -5 16 -10 36 -10
19 0 33 -4 29 -9 -3 -6 17 -12 47 -14 43 -3 48 -5 30 -12 -18 -6 -20 -10 -10
-16 18 -12 31 -11 23 1 -8 12 25 13 44 1 18 -12 -18 -24 -71 -23 -27 1 -36 -3
-32 -11 5 -9 4 -9 -6 -1 -9 9 -20 8 -43 -5 -18 -9 -36 -20 -40 -26 -6 -6 -10
-6 -14 3 -7 19 -23 14 -32 -10 -6 -18 -12 -6 -29 58 -26 96 -27 104 -6 104 8
0 12 -4 9 -10z m1133 -82 c14 -14 15 -139 2 -288 -8 -83 -15 -116 -38 -160
-15 -30 -35 -56 -44 -58 -14 -3 -14 1 3 35 30 60 39 134 39 308 0 176 5 196
38 163z m-985 -500 c147 -88 174 -93 527 -93 352 0 381 5 526 93 44 27 97 52
118 55 l39 6 -6 -47 c-11 -93 -43 -154 -135 -259 -48 -55 -116 -135 -152 -179
-49 -60 -75 -82 -106 -93 l-41 -14 -43 47 c-64 70 -82 76 -210 76 l-112 0 -62
-60 c-35 -33 -69 -60 -77 -60 -32 0 -91 50 -159 135 -40 50 -102 120 -137 157
-74 77 -113 154 -120 237 l-5 57 36 -4 c20 -2 73 -26 119 -54z"/>
<path d="M1010 620 c-36 -11 -78 -22 -93 -25 -20 -4 -27 -11 -25 -23 5 -25 50
-26 126 -3 93 28 278 28 358 0 63 -21 119 -25 129 -9 10 16 -14 40 -39 40 -11
0 -50 9 -84 20 -87 27 -278 27 -372 0z"/>
</g>
</svg>
